<svg version="1.1" viewBox="0.0 0.0 326.0209973753281 411.5826771653543" fill="none" stroke="none" stroke-linecap="square" stroke-miterlimit="10" xmlns:xlink="http://www.w3.org/1999/xlink" xmlns="http://www.w3.org/2000/svg"><clipPath id="p.0"><path d="m0 0l326.021 0l0 411.58267l-326.021 0l0 -411.58267z" clip-rule="nonzero"/></clipPath><g clip-path="url(#p.0)"><path fill="#000000" fill-opacity="0.0" d="m0 0l326.021 0l0 411.58267l-326.021 0z" fill-rule="evenodd"/><path fill="#000000" fill-opacity="0.0" d="m263.99637 12.153543l0 0c27.887299 0 50.494446 22.607134 50.494446 50.494446l0 286.2867c0 13.391968 -5.3199463 26.235413 -14.78949 35.704956c-9.469543 9.469543 -22.312988 14.78949 -35.704956 14.78949l-201.97174 0c-27.887314 0 -50.494446 -22.607147 -50.494446 -50.494446l0 -286.2867l0 0c0 -27.887314 22.607134 -50.494446 50.494446 -50.494446z" fill-rule="evenodd"/><path stroke="#434343" stroke-width="8.0" stroke-linejoin="round" stroke-linecap="butt" d="m263.99637 12.153543l0 0c27.887299 0 50.494446 22.607134 50.494446 50.494446l0 286.2867c0 13.391968 -5.3199463 26.235413 -14.78949 35.704956c-9.469543 9.469543 -22.312988 14.78949 -35.704956 14.78949l-201.97174 0c-27.887314 0 -50.494446 -22.607147 -50.494446 -50.494446l0 -286.2867l0 0c0 -27.887314 22.607134 -50.494446 50.494446 -50.494446z" fill-rule="evenodd"/></g></svg>