<svg version="1.1" viewBox="0.0 0.0 395.6404199475066 163.8451443569554" fill="none" stroke="none" stroke-linecap="square" stroke-miterlimit="10" xmlns:xlink="http://www.w3.org/1999/xlink" xmlns="http://www.w3.org/2000/svg"><clipPath id="p.0"><path d="m0 0l395.6404 0l0 163.84514l-395.6404 0l0 -163.84514z" clip-rule="nonzero"/></clipPath><g clip-path="url(#p.0)"><path fill="#000000" fill-opacity="0.0" d="m0 0l395.6404 0l0 163.84514l-395.6404 0z" fill-rule="evenodd"/><path fill="#000000" fill-opacity="0.0" d="m361.74103 13.984252l0 0c12.507111 0 22.646118 10.139014 22.646118 22.646122l0 90.58177l0 0c0 6.006134 -2.3859253 11.766251 -6.632904 16.01323c-4.2469788 4.2469788 -10.007111 6.632889 -16.013214 6.632889l-327.8416 0c-12.507107 0 -22.646122 -10.139008 -22.646122 -22.646118l0 -90.58177c0 -12.507109 10.139015 -22.646122 22.646122 -22.646122z" fill-rule="evenodd"/><path stroke="#434343" stroke-width="8.0" stroke-linejoin="round" stroke-linecap="butt" d="m361.74103 13.984252l0 0c12.507111 0 22.646118 10.139014 22.646118 22.646122l0 90.58177l0 0c0 6.006134 -2.3859253 11.766251 -6.632904 16.01323c-4.2469788 4.2469788 -10.007111 6.632889 -16.013214 6.632889l-327.8416 0c-12.507107 0 -22.646122 -10.139008 -22.646122 -22.646118l0 -90.58177c0 -12.507109 10.139015 -22.646122 22.646122 -22.646122z" fill-rule="evenodd"/></g></svg>